Coordinates
version=1
nRows=13
nColumns=34
inDegrees=yes

Units are S.I. units (second, meters, Newtons, ...)
Angles are in degrees.

endheader
time	pelvis_tilt	pelvis_list	pelvis_rotation	pelvis_tx	pelvis_ty	pelvis_tz	hip_flexion_r	hip_adduction_r	hip_rotation_r	knee_angle_r	ankle_angle_r	subtalar_angle_r	mtp_angle_r	hip_flexion_l	hip_adduction_l	hip_rotation_l	knee_angle_l	socket_flexion	socket_adduction	socket_rotation	socket_tx	socket_ty	socket_tz	pros_ankle_rx	pros_ankle_ry	pros_ankle_rz	pros_ankle_tx	pros_ankle_ty	pros_ankle_tz	foot_flex	lumbar_extension	lumbar_bending	lumbar_rotation
      0.30000000	     -3.73155674	     -4.61573676	     -4.35619782	     -0.39716714	      1.03237723	      0.35953909	     18.48305820	      2.77293362	     -3.93114307	    -67.45376279	     -2.69170017	      7.27686543	     16.71711750	     15.23291535	     -6.26802534	     -4.09370055	    -12.98227707	      9.37667045	      1.71051279	      3.06703651	      0.03666303	     -0.02583618	     -0.02248672	      0.00000000	      0.00000000	      0.00000000	      0.00000000	      0.00000000	      0.00000000	      4.52526088	    -14.36882262	     -3.39631183	      2.90028584
      0.30416667	     -3.61435207	     -4.65592360	     -4.23367699	     -0.39173592	      1.03320460	      0.35933125	     18.91914392	      2.82434731	     -4.05012862	    -67.37260486	     -1.83800425	      7.26352666	     16.76615905	     14.68320594	     -6.26871625	     -4.16195984	    -12.89799634	      9.27681054	      1.69257526	      3.18117925	      0.03632592	     -0.02586262	     -0.02257591	      0.00000000	      0.00000000	      0.00000000	      0.00000000	      0.00000000	      0.00000000	      4.67332682	    -14.44112543	     -3.29796909	      2.73104048
      0.30833333	     -3.51995686	     -4.70593395	     -4.13413139	     -0.38633395	      1.03400572	      0.35911619	     19.37700769	      2.87701100	     -4.19093161	    -67.24319888	     -1.00241415	      7.20425385	     16.82350697	     14.15090741	     -6.25960900	     -4.22608041	    -12.79986896	      9.16899316	      1.67565180	      3.30775979	      0.03597944	     -0.02589638	     -0.02241507	      0.00000000	      0.00000000	      0.00000000	      0.00000000	      0.00000000	      0.00000000	      4.84175521	    -14.48961917	     -3.17828896	      2.58192434
      0.31250000	     -3.49954837	     -4.77282076	     -4.03174958	     -0.38106707	      1.03476593	      0.35889242	     19.90191229	      2.96073749	     -4.32691286	    -66.99413935	     -0.62547494	      7.16709905	     16.85071150	     13.78194348	     -6.25230728	     -4.26437050	    -12.75011812	      9.11529334	      1.61079027	      3.39412656	      0.03611484	     -0.02564667	     -0.02199728	      0.00000000	      0.00000000	      0.00000000	      0.00000000	      0.00000000	      0.00000000	      4.95860376	    -14.60174513	     -3.15807752	      2.51985828
      0.31666667	     -3.23487878	     -4.79483614	     -3.99150731	     -0.37575827	      1.03569432	      0.35892504	     20.17121057	      3.02761144	     -4.34463001	    -66.83711413	      0.82608047	      7.36997725	     16.91464211	     12.97030874	     -6.34134444	     -4.34732760	    -12.62378760	      8.95005397	      1.72194378	      3.46529748	      0.03503546	     -0.02593920	     -0.02308609	      0.00000000	      0.00000000	      0.00000000	      0.00000000	      0.00000000	      0.00000000	      5.08379861	    -14.76243369	     -3.04437170	      2.08665629
      0.32083333	     -3.22066952	     -4.85769016	     -3.88395021	     -0.37056009	      1.03642474	      0.35864351	     20.68576866	      3.08570698	     -4.50396489	    -66.48024889	      1.09815421	      7.31787498	     16.92672049	     12.63119943	     -6.31157663	     -4.38502165	    -12.57927593	      8.90154507	      1.64641490	      3.53017960	      0.03527879	     -0.02564166	     -0.02248968	      0.00000000	      0.00000000	      0.00000000	      0.00000000	      0.00000000	      0.00000000	      5.20304640	    -14.85194616	     -2.99912180	      2.06861452
      0.32500000	     -3.10740196	     -4.91609725	     -3.77431582	     -0.36514511	      1.03717771	      0.35838148	     21.05943832	      3.14281295	     -4.65144148	    -66.14334908	      2.13350668	      7.18937389	     16.98882152	     12.03602376	     -6.30380974	     -4.43457641	    -12.46706897	      8.78631120	      1.60394461	      3.65398796	      0.03449224	     -0.02580964	     -0.02228871	      0.00000000	      0.00000000	      0.00000000	      0.00000000	      0.00000000	      0.00000000	      5.35519260	    -14.74097513	     -2.76100231	      1.91383056
      0.32916667	     -3.10065507	     -4.95904046	     -3.69460337	     -0.36010496	      1.03782239	      0.35819835	     21.57375806	      3.20020744	     -4.76664798	    -65.69904322	      2.40867975	      7.16894370	     16.99958344	     11.73348918	     -6.29961562	     -4.48129064	    -12.44310009	      8.75337347	      1.56860565	      3.69897449	      0.03488828	     -0.02543192	     -0.02207909	      0.00000000	      0.00000000	      0.00000000	      0.00000000	      0.00000000	      0.00000000	      5.45014589	    -14.87853356	     -2.75663329	      1.86536784
      0.33333333	     -2.98378238	     -5.05168608	     -3.61568483	     -0.35476714	      1.03856859	      0.35808795	     21.92366107	      3.33481385	     -4.86810456	    -65.27291732	      3.48099232	      7.11956386	     17.04865209	     11.11154994	     -6.36427368	     -4.54654208	    -12.32214395	      8.62747577	      1.56753963	      3.80818090	      0.03389204	     -0.02567751	     -0.02203452	      0.00000000	      0.00000000	      0.00000000	      0.00000000	      0.00000000	      0.00000000	      5.60510883	    -14.81338910	     -2.51835322	      1.62708258
      0.33750000	     -2.97103748	     -5.07613049	     -3.55928591	     -0.34985675	      1.03915858	      0.35793364	     22.42262281	      3.37115835	     -4.96875715	    -64.75100931	      3.70036309	      7.11181620	     17.04920013	     10.83665347	     -6.36563056	     -4.58846572	    -12.31771292	      8.61086774	      1.54413229	      3.84160421	      0.03448482	     -0.02521719	     -0.02208149	      0.00000000	      0.00000000	      0.00000000	      0.00000000	      0.00000000	      0.00000000	      5.68602950	    -14.95827052	     -2.51707284	      1.58445882
      0.34166667	     -2.84936137	     -5.19998452	     -3.48787436	     -0.34455012	      1.03990541	      0.35780779	     22.72727294	      3.54457333	     -5.06173481	    -64.19930090	      4.66124868	      7.11502685	     17.04418465	     10.18752925	     -6.47730077	     -4.64604310	    -12.18687173	      8.47476640	      1.54345174	      3.93846580	      0.03327778	     -0.02552845	     -0.02221297	      0.00000000	      0.00000000	      0.00000000	      0.00000000	      0.00000000	      0.00000000	      5.83216497	    -14.92310057	     -2.26300487	      1.32077409
      0.34583333	     -2.53165165	     -5.37140471	     -3.44957088	     -0.33956623	      1.04096864	      0.35784530	     22.80756508	      3.77333126	     -5.15171686	    -63.52798394	      5.26382420	      7.36204781	     16.65021279	      9.31133179	     -6.73768560	     -4.57364601	    -12.07813949	      8.29200351	      1.70164570	      3.84248044	      0.03177735	     -0.02583518	     -0.02342116	      0.00000000	      0.00000000	      0.00000000	      0.00000000	      0.00000000	      0.00000000	      5.98841665	    -15.37854908	     -2.08931384	      1.01652710
      0.35000000	     -2.53598191	     -5.40226908	     -3.35950617	     -0.33448449	      1.04151919	      0.35757130	     23.25167264	      3.81238693	     -5.26397790	    -62.87361948	      5.66807160	      7.23756556	     16.59339445	      8.94162132	     -6.68658980	     -4.58542202	    -12.00972398	      8.21781396	      1.62118624	      3.91320016	      0.03140327	     -0.02568333	     -0.02296004	      0.00000000	      0.00000000	      0.00000000	      0.00000000	      0.00000000	      0.00000000	      6.06810454	    -15.36837538	     -1.96631945	      1.00325288
